<?xml version="1.0" encoding="utf-8"?>
<!-- Generator: Adobe Illustrator 19.2.1, SVG Export Plug-In . SVG Version: 6.00 Build 0)  -->
<svg version="1.1" baseProfile="tiny" xmlns="http://www.w3.org/2000/svg" xmlns:xlink="http://www.w3.org/1999/xlink" x="0px"
	 y="0px" viewBox="0 0 560 560" xml:space="preserve">
<g id="Layer_1">
</g>
<g id="Layer_2">
	<g>
		<g>
			<path fill="#3197EF" d="M137,357.2c0-4,2.5-6.5,6.5-6.5h20.6c17,0,27.4,6.1,31.7,19.3c1.6,5.2,2.5,10.7,2.5,22.7
				c0,12-0.9,17.5-2.5,22.7c-4.3,13.2-14.7,19.3-31.7,19.3h-20.6c-4.1,0-6.5-2.5-6.5-6.4V357.2z M152.3,421.5h11.1
				c9.7,0,15.9-3.3,18.5-11.2c1-3.5,1.6-8.4,1.6-17.7s-0.6-14.2-1.6-17.7c-2.6-7.9-8.8-11.2-18.5-11.2h-11.1c-0.5,0-0.7,0.2-0.7,0.7
				v56.3C151.6,421.3,151.8,421.5,152.3,421.5z"/>
			<path fill="#3197EF" d="M227.7,382h0.1c2.6-4.6,8-8.3,15.1-8.3c3.3,0,5.7,0.7,7.5,1.6c2.6,1.4,3.7,3.3,3.7,5.7c0,4.1-2.7,7-6.8,7
				c-1,0-2.1-0.2-3.2-0.6c-1.7-0.5-3.7-1-5.6-1c-7.7,0-10.9,6-10.9,15.1V428c0,4.6-2.8,7.3-6.9,7.3c-4,0-6.9-2.7-6.9-7.3v-46.2
				c0-4.6,2.8-7.3,6.9-7.3c4.1,0,6.9,2.7,6.9,7.3V382z"/>
			<path fill="#3197EF" d="M280.4,358.8c0-5.4,3.2-8.8,8.1-8.8c4.3,0,6.3,2.3,8.6,7.5l20.7,46.5h0.5l20.2-46.5
				c2.2-5.2,4.2-7.5,8.5-7.5c4.9,0,8,3.3,8,8.8v69.2c0,4.6-2.8,7.2-6.7,7.2c-4,0-6.8-2.6-6.8-7.2v-46h-0.6l-15.3,34.8
				c-2.2,5.1-4.4,6.5-7.9,6.5c-3.6,0-5.8-1.5-8-6.5L294.5,382h-0.6v46c0,4.6-2.8,7.2-6.7,7.2c-4,0-6.8-2.6-6.8-7.2V358.8z"/>
			<path fill="#3197EF" d="M372.4,419.4c-1.2-3.8-2.1-8.4-2.1-14.6c0-6.2,0.7-10.9,2-14.7c3.3-10.4,12.5-16.4,24.3-16.4
				c12.2,0,21.1,6.3,24.4,16.4c1.2,4,2,8.6,2,14.3c0,2.8-1.7,4.8-4.8,4.8H385c-0.5,0-0.7,0.2-0.7,0.7c0,1.7,0.4,3.2,0.9,4.6
				c2,5.8,6.7,9,13.5,9c5.1,0,8.4-1.5,12.2-4.1c1.6-1.1,3.2-2,5.1-2c3.6,0,5.8,2.5,5.8,5.8c0,2.3-1,4-2.8,5.4
				c-5.3,4.3-11.9,7.2-21.5,7.2C384.6,436,375.7,429.8,372.4,419.4z M408.3,393.1c-1.6-4.8-6-7.7-11.6-7.7c-5.7,0-10.1,2.8-11.7,7.7
				c-0.5,1.5-0.7,3-0.7,5.1c0,0.5,0.2,0.7,0.7,0.7h23.3c0.5,0,0.7-0.2,0.7-0.7C409.1,396.1,408.8,394.6,408.3,393.1z"/>
		</g>
		<g>
			<path fill="#3197EF" d="M290.6,241.4c8.2,5.5,15.8,11.5,23.7,18.7c-4.5,7.3-5.8,16.2-3.2,24.8c3.1,10.4,12,18.5,22.6,20.7
				c21.7,4.5,40.6-14.4,36.1-36.2c-2.2-10.7-10.4-19.6-20.9-22.6c-8.7-2.5-17.6-1.2-24.9,3.4c-7.4-6.9-14-12.4-20.7-17.1
				c-0.2-0.1-0.5-0.2-0.7-0.1c-3.3,1.3-9.7,5.5-12,7.1C290.1,240.5,290.1,241,290.6,241.4z M343.4,292.3
				c-11.7,2.2-21.8-7.9-19.6-19.6c1.2-6.5,6.6-11.8,13.1-13.1c11.7-2.2,21.8,7.9,19.6,19.6C355.2,285.8,349.9,291.1,343.4,292.3z"/>
			<path fill="#3197EF" d="M273.4,215.2c-13.9-7.9-27.1-15.8-38.4-26.7c-4.5-4.4-8-10-9.1-16.2c-1.6-9.4,1.4-18.5,7.9-25
				c6.1-6.1,14.5-9.1,23.2-8.1c5.1,0.5,10,2.7,14.1,5.8c2,1.5,3.5,3,5.5,5.6c1.3,1.7,3.3,2.8,5.5,2.8h0c2.2,0,4.2-1,5.5-2.8
				c1.4-1.9,2.6-3.2,3.9-4.3c4.3-3.7,9.7-6.3,15.4-7c8.8-1,17.4,1.9,23.5,8.1c6.5,6.5,9.5,15.6,7.9,25c-1,6.2-4.4,11.7-8.9,16.1
				c-13.1,12.8-29.5,22-45.4,30.9l-1.1,0.6l-0.7,0.4c-7.4,4.3-9.3,5.2-13.8,8c-10.4,6.3-18.5,12.1-25.3,18.1
				c-6.9-4.5-15.1-6.1-23.5-4.4c-6.3,1.3-12,4.7-16.6,9.3l-10.7,10.7c-1.3,1.3-2,3-2,4.9c0,1.8,0.7,3.5,2,4.8l0.5,0.5h0l6.5,6.5
				c1.3,1.3,3,2,4.9,2c1.8,0,3.6-0.7,4.9-2c1.3-1.3,2-3,2-4.8c0-1.8-0.7-3.6-2-4.9l-2.1-2.1l6.3-6.3c2-2,4.3-3.7,7-4.5
				c7.9-2.5,15.9,0.3,20.5,6.9c4.7,6.7,3.1,17.4-2.7,23.1l-6,6l-1.7-1.7v0l-0.5-0.5c-1.3-1.3-3-2-4.9-2c-1.8,0-3.6,0.7-4.9,2
				c-2.7,2.7-2.7,7,0,9.7l7,7c1.3,1.3,3,2,4.9,2c1.8,0,3.6-0.7,4.9-2l11.4-11.4c10.4-10.4,12.2-26.6,4.4-39
				c8.3-7.3,17.8-13.3,29.5-20c5.3-3,9.3-5.2,13.7-7.8c16.2-9.2,30.7-18,43.4-30.4c6-5.9,10.6-13.4,12.3-21.6
				c3-14.5-1.4-28.7-11.4-38.7c-8-8-18.5-12.3-29.8-12.3c-10.5,0-20.5,3.9-28.3,10.9c-7.8-7-17.7-10.9-28.3-10.9
				c-11.2,0-21.8,4.4-29.8,12.3c-10.9,10.9-15.1,26.7-10.5,42.4c1.9,6.6,5.8,12.4,10.6,17.3c11.1,11.1,23.5,19,36.6,26.7
				c0.3,0.2,0.7,0.2,1-0.1c4.8-3.4,9.4-6.1,11.5-7.3C273.9,216.2,273.9,215.5,273.4,215.2z M225,289.4c0.1,0,0.1,0,0.2,0h0
				C225.1,289.4,225,289.4,225,289.4z"/>
		</g>
	</g>
</g>
</svg>
