<svg id="Layer_2" data-name="Layer 2" xmlns="http://www.w3.org/2000/svg" viewBox="0 0 510.09 179.65"><defs><style>.cls-1{fill:#3197ef;}</style></defs><title>LogoHorizontal</title><path class="cls-1" d="M229.79,54.36c0-3.87,2.42-6.41,6.41-6.41h20.2c16.7,0,26.86,5.93,31.09,18.87,1.57,5.08,2.42,10.52,2.42,22.26s-0.85,17.18-2.42,22.26c-4.24,12.94-14.4,18.87-31.09,18.87H236.2c-4,0-6.41-2.42-6.41-6.29V54.36Zm15,63h10.89c9.55,0,15.6-3.27,18.15-11,1-3.39,1.57-8.23,1.57-17.3s-0.61-13.91-1.57-17.3c-2.54-7.74-8.59-11-18.15-11H244.79a0.72,0.72,0,0,0-.72.72v55.17A0.73,0.73,0,0,0,244.79,117.39Z"/><path class="cls-1" d="M318.73,78.67h0.12A17.67,17.67,0,0,1,341,72.14a6,6,0,0,1,3.63,5.57c0,4-2.66,6.89-6.66,6.89a10.26,10.26,0,0,1-3.14-.61,20.67,20.67,0,0,0-5.45-1c-7.5,0-10.64,5.93-10.64,14.76v25.89c0,4.48-2.78,7.14-6.77,7.14s-6.78-2.66-6.78-7.14V78.43c0-4.48,2.78-7.14,6.78-7.14s6.77,2.66,6.77,7.14v0.24Z"/><path class="cls-1" d="M370.34,55.93c0-5.32,3.14-8.59,8-8.59,4.23,0,6.17,2.3,8.47,7.38l20.33,45.61h0.48l19.84-45.61c2.17-5.08,4.11-7.38,8.35-7.38,4.84,0,7.86,3.27,7.86,8.59V123.8c0,4.48-2.78,7-6.53,7s-6.65-2.54-6.65-7V78.67h-0.61l-15,34.12c-2.18,5-4.35,6.41-7.74,6.41s-5.69-1.45-7.87-6.41L384.13,78.67h-0.61V123.8c0,4.48-2.78,7-6.53,7s-6.65-2.54-6.65-7V55.93Z"/><path class="cls-1" d="M460.49,115.33a45.21,45.21,0,0,1-2.06-14.28,46.46,46.46,0,0,1,1.93-14.4c3.27-10.16,12.22-16.09,23.83-16.09,12,0,20.69,6.17,24,16.09a46.76,46.76,0,0,1,1.93,14,4.38,4.38,0,0,1-4.72,4.72H472.84a0.64,0.64,0,0,0-.73.73,12.87,12.87,0,0,0,.85,4.48c1.94,5.68,6.53,8.83,13.19,8.83,5,0,8.22-1.45,12-4a8.75,8.75,0,0,1,5-1.94,5.4,5.4,0,0,1,5.69,5.69,6.39,6.39,0,0,1-2.78,5.32c-5.2,4.24-11.61,7-21,7C472.47,131.54,463.76,125.49,460.49,115.33ZM495.7,89.56c-1.57-4.72-5.93-7.5-11.37-7.5s-9.92,2.78-11.49,7.5a14.73,14.73,0,0,0-.73,5,0.64,0.64,0,0,0,.73.73H495.7a0.64,0.64,0,0,0,.72-0.73A14.86,14.86,0,0,0,495.7,89.56Z"/><path class="cls-1" d="M98.24,113.86a183,183,0,0,1,23.22,18.37,29.89,29.89,0,0,0-3.15,24.35,29.49,29.49,0,0,0,22.16,20.32,29.81,29.81,0,0,0,35.38-35.47,29.5,29.5,0,0,0-20.49-22.14A29.84,29.84,0,0,0,131,122.65a196.06,196.06,0,0,0-20.31-16.79,0.7,0.7,0,0,0-.68-0.1c-3.19,1.27-9.46,5.38-11.76,6.91A0.65,0.65,0,0,0,98.24,113.86ZM150,163.79A16.3,16.3,0,1,1,162.78,151,16.32,16.32,0,0,1,150,163.79Z"/><path class="cls-1" d="M81.38,88.21C67.71,80.42,54.81,72.73,43.77,62A29.35,29.35,0,0,1,34.9,46.12,27.84,27.84,0,0,1,65.38,13.61a29.08,29.08,0,0,1,13.85,5.67,23.24,23.24,0,0,1,5.38,5.44A6.75,6.75,0,0,0,90,27.43h0a6.76,6.76,0,0,0,5.4-2.72,24.28,24.28,0,0,1,3.85-4.24,28.55,28.55,0,0,1,15-6.82A27.84,27.84,0,0,1,145.1,46.08a29.09,29.09,0,0,1-8.72,15.8c-12.89,12.54-29,21.57-44.51,30.32l-1,.59-0.7.4c-7.28,4.2-9.14,5.1-13.52,7.79a164.3,164.3,0,0,0-24.82,17.76,30.88,30.88,0,0,0-23-4.36,32.18,32.18,0,0,0-16.29,9.12L2,134a6.74,6.74,0,0,0,0,9.51l0.46,0.46h0l6.39,6.38a6.73,6.73,0,0,0,9.51-9.51l-2.09-2.08,6.19-6.19a17.36,17.36,0,0,1,6.9-4.45,17.56,17.56,0,0,1,20.11,6.76c4.56,6.59,3,17-2.64,22.68l-5.88,5.87-1.63-1.63h0l-0.46-.46a6.72,6.72,0,0,0-9.51,9.51l6.83,6.84a6.73,6.73,0,0,0,9.51,0l11.17-11.17a30.89,30.89,0,0,0,4.31-38.26c8.1-7.11,17.47-13,28.89-19.57,5.17-2.91,9.13-5.14,13.45-7.61,15.88-9,30.11-17.66,42.52-29.83a41.92,41.92,0,0,0,12-21.2A41.28,41.28,0,0,0,90,10.69a41.24,41.24,0,0,0-56.87,1.4C22.46,22.74,18.35,38.21,22.82,53.6A40,40,0,0,0,33.24,70.54c10.9,10.87,23,18.67,35.86,26.12a1,1,0,0,0,1-.05c4.73-3.36,9.26-6,11.27-7.16A0.71,0.71,0,0,0,81.38,88.21ZM33.93,160.92h0Z"/></svg>